<svg width="0" height="0" class="hidden">
    <symbol id="logout" viewBox="0 0 24 24" fill="none" xmlns="http://www.w3.org/2000/svg">
        <path fill-rule="evenodd" clip-rule="evenodd" d="M0 2.667C0 1.2 1.2 0 2.666 0H13.33v2.667H2.666v18.666H13.33V24H2.666A2.674 2.674 0 010 21.333V2.667zm18.897 8l-3.38-3.382L17.4 5.4 24 12l-6.599 6.6-1.884-1.885 3.38-3.382h-8.78v-2.666h8.78z" fill="currentColor"/>
    </symbol>
    <symbol viewBox="0 0 12 12" fill="none" xmlns="http://www.w3.org/2000/svg" id="home">
        <path d="M0 4v7a1 1 0 001 1h3V8h4v4h3a1 1 0 001-1V4L6 0 0 4z" fill="currentColor"/>
    </symbol>
    <symbol fill="none" xmlns="http://www.w3.org/2000/svg" viewBox="0 0 12 12" id="video">
        <path
                d="M10.5 1h-9A1.5 1.5 0 000 2.5v7A1.5 1.5 0 001.5 11h9A1.5 1.5 0 0012 9.5v-7A1.5 1.5 0 0010.5 1zM4 9V3l5 3-5 3z"
                fill="currentColor"/>
    </symbol>
    <symbol fill="none" xmlns="http://www.w3.org/2000/svg" viewBox="0 0 12 12" id="lines">
        <path d="M11 0H1a1 1 0 00-1 1v2a1 1 0 001 1h10a1 1 0 001-1V1a1 1 0 00-1-1zM12 6H0v2h12V6zM7 10H0v2h7v-2z"
              fill="currentColor"/>
    </symbol>
    <symbol fill="none" xmlns="http://www.w3.org/2000/svg" viewBox="0 0 12 12" id="comment">
        <path
                d="M6 0C2.7 0 0 2.36 0 5.27c0 2.9 2.7 5.26 6 5.26.35 0 .7-.02 1.04-.08l2.72 1.49a.5.5 0 00.74-.44V8.71A4.9 4.9 0 0012 5.27C12 2.37 9.3 0 6 0z"
                fill="currentColor"/>
    </symbol>
    <symbol fill="none" xmlns="http://www.w3.org/2000/svg" viewBox="0 0 12 10" id="camera">
        <path d="M8 3.5v-2A1.5 1.5 0 006.5 0h-5A1.5 1.5 0 000 1.5v7A1.5 1.5 0 001.5 10h5A1.5 1.5 0 008 8.5v-2L12 9V1L8 3.5z"
              fill="currentColor"/>
    </symbol>
    <symbol fill="none" xmlns="http://www.w3.org/2000/svg" viewBox="0 0 12 12" id="pen">
        <path d="M11.58.41a1.4 1.4 0 00-2 0L5 5 4 8l3-1 4.59-4.59a1.41 1.41 0 000-2z" fill="currentColor"/>
        <path d="M11.1 6.02a1 1 0 00-1.18.78A4 4 0 115.2 2.08 1 1 0 104.8.12a6 6 0 107.08 7.08 1 1 0 00-.78-1.18z"
              fill="currentColor"/>
    </symbol>
    <symbol fill="none" xmlns="http://www.w3.org/2000/svg" viewBox="0 0 12 12" id="search">
        <path d="M11.72 10.3L9.18 7.78a5 5 0 10-1.4 1.41l2.53 2.54a1 1 0 001.41-1.41zm-9.7-5.28a3 3 0 116 0 3 3 0 01-6 0z"
              fill="currentColor"/>
    </symbol>
    <symbol fill="none" xmlns="http://www.w3.org/2000/svg" viewBox="0 0 90 90" id="cog">
        <path d="M79.167 23.75H63.333v-7.917a7.89 7.89 0 00-7.916-7.916H39.583a7.89 7.89 0 00-7.916 7.916v7.917H15.833c-4.393 0-7.877 3.523-7.877 7.917l-.04 43.541a7.89 7.89 0 007.917 7.917h63.334a7.89 7.89 0 007.916-7.917V31.667a7.89 7.89 0 00-7.916-7.917zm-23.75 0H39.583v-7.917h15.834v7.917z" fill="currentColor"/>
    </symbol>
    <symbol fill="none" xmlns="http://www.w3.org/2000/svg" viewBox="0 0 12 13" id="user">
        <path
                d="M9.54 6.69A4.27 4.27 0 016 9a4.27 4.27 0 01-3.54-2.31c-1.18.86-2 2.11-2.32 3.54a.5.5 0 00.2.51 9.99 9.99 0 0011.32 0 .5.5 0 00.2-.51 5.98 5.98 0 00-2.32-3.54z"
                fill="currentColor"/>
        <path d="M6 .5a3 3 0 00-3 3c0 1.61 1.26 4 3 4s3-2.39 3-4a3 3 0 00-3-3z" fill="currentColor"/>
    </symbol>
    <symbol fill="none" xmlns="http://www.w3.org/2000/svg" viewBox="0 0 16 16" id="warning">
        <path
                d="M14.93 13.38L8.43 2.12A.5.5 0 008 1.88a.5.5 0 00-.43.25l-6.5 11.25a.5.5 0 00.43.76h13a.5.5 0 00.43-.76zM7.5 6.5c0-.07.06-.13.13-.13h.75c.06 0 .12.06.12.13v2.88c0 .06-.06.12-.12.12h-.75a.13.13 0 01-.13-.13V6.5zM8 12a.75.75 0 010-1.5.75.75 0 010 1.5z"
                fill="currentColor"/>
    </symbol>
    <symbol fill="none" xmlns="http://www.w3.org/2000/svg" viewBox="0 0 15 15" id="cross">
        <path
                d="M2.64 1.27L7.5 6.13l4.84-4.84A.92.92 0 0113 1a1 1 0 01.93 1.36.9.9 0 01-.2.3L8.84 7.5l4.89 4.89A.9.9 0 0114 13a1 1 0 01-1 1 .92.92 0 01-.69-.27L7.5 8.87l-4.85 4.85A.92.92 0 012 14a1 1 0 01-.93-1.36.9.9 0 01.2-.3L6.16 7.5 1.27 2.61A.9.9 0 011 2a1 1 0 011-1c.24 0 .47.1.64.27z"
                fill="currentColor"/>
    </symbol>
    <symbol fill="none" xmlns="http://www.w3.org/2000/svg" viewBox="0 0 24 24" id="check">
        <path
                d="M12 2a10.01 10.01 0 000 20 10.01 10.01 0 000-20zm-2 14.41l-3.71-3.7 1.41-1.42 2.3 2.3 5.3-5.3 1.4 1.42-6.7 6.7z"
                fill="currentColor"/>
    </symbol>
    <symbol fill="none" xmlns="http://www.w3.org/2000/svg" viewBox="0 0 16 16" id="edit">
        <path d="M16 14H0v2h16v-2zM11.7 3.3c.4-.4.4-1 0-1.4L10.1.3c-.4-.4-1-.4-1.4 0L0 9v3h3l8.7-8.7z" fill="currentColor"/>
    </symbol>
    <symbol fill="none" xmlns="http://www.w3.org/2000/svg" viewBox="0 0 16 16" id="clone">
        <path d="M7 8H1c-.6 0-1 .4-1 1v6c0 .6.4 1 1 1h6c.6 0 1-.4 1-1V9c0-.6-.4-1-1-1z" fill="currentColor"/>
        <path d="M11 4H2v2h8v8h2V5c0-.6-.4-1-1-1z" fill="currentColor"/>
        <path d="M15 0H6v2h8v8h2V1c0-.6-.4-1-1-1z" fill="currentColor"/>
    </symbol>
    <symbol fill="none" xmlns="http://www.w3.org/2000/svg" viewBox="0 0 16 16" id="delete">
        <path fill-rule="evenodd" clip-rule="evenodd"
              d="M0 8c0-4.4 3.6-8 8-8s8 3.6 8 8-3.6 8-8 8-8-3.6-8-8zm10.1 3.5l1.4-1.4L9.4 8l2.1-2.1-1.4-1.4L8 6.6 5.9 4.5 4.5 5.9 6.6 8l-2.1 2.1 1.4 1.4L8 9.4l2.1 2.1z"
              fill="currentColor"/>
    </symbol>
    <symbol fill="none" xmlns="http://www.w3.org/2000/svg" viewBox="0 0 24 24" id="trash">
        <path
                d="M5 20c0 1.1.9 2 2 2h10a2 2 0 002-2V8h2V6h-4V4a2 2 0 00-2-2H9a2 2 0 00-2 2v2H3v2h2v12zM9 4h6v2H9V4zM8 8h9v12H7V8h1z"
                fill="currentColor"/>
        <path d="M9 10h2v8H9v-8zm4 0h2v8h-2v-8z" fill="currentColor"/>
    </symbol>
    <symbol id="reply" fill="none" xmlns="http://www.w3.org/2000/svg" viewBox="0 0 24 24">
        <path
                d="M10 9V7.41a1 1 0 00-1.71-.71L3.7 11.29a1 1 0 000 1.41l4.59 4.59a1 1 0 001.71-.7V14.9c5 0 8.5 1.6 11 5.1-1-5-4-10-11-11z"
                fill="currentColor"/>
    </symbol>
    <symbol fill="none" xmlns="http://www.w3.org/2000/svg" viewBox="0 0 16 16" id="comments">
        <path
                d="M1.5 8.42v-.16l-.1-.14A4.37 4.37 0 01.5 5.5c0-2.69 2.6-5 6-5s6 2.31 6 5-2.6 5-6 5c-.94 0-1.82-.19-2.61-.5l-.23-.1-.2.12-1.96 1.12V8.42zm6.88 4.9c3.14-.6 5.7-2.65 6.68-5.37.29.48.44 1 .44 1.55 0 .78-.31 1.53-.88 2.17l-.75.83h.63v2.64l-2.95-1.68-.15-.1-.18.04a7.47 7.47 0 01-2.84-.08z"
                fill="currentColor" stroke="currentColor"/>
    </symbol>
    <symbol fill="none" xmlns="http://www.w3.org/2000/svg" viewBox="0 0 24 24" id="sort">
        <path d="M17.25 15.88l-4.5 4.5V.82h-1.5v19.56l-4.5-4.5-1.06 1.06L12 23.25l6.31-6.31-1.06-1.06z"
              fill="currentColor"/>
    </symbol>

    <symbol id="lock" xmlns="http://www.w3.org/2000/svg" fill="none" viewBox="0 0 24 24">
        <path fill="currentColor" fill-rule="evenodd"
              d="M7 10V7a5 5 0 1110 0v3h1a2 2 0 012 2v8a2 2 0 01-2 2H6a2 2 0 01-2-2v-8a2 2 0 012-2h1zm-1 2v8h12v-8H6zm3-2h6V7a3 3 0 00-6 0v3zm5 4h2v4h-2v-4z"
              clip-rule="evenodd"/>
    </symbol>
    <symbol id="cloud" xmlns="http://www.w3.org/2000/svg" fill="none" viewBox="0 0 20 17">
        <path stroke="currentColor" stroke-linecap="round" stroke-linejoin="round" stroke-width="2"
              d="M13.28 11.83L10 8.5m0 0l-3.27 3.33M10 8.5V16m6.87-2.18a4.24 4.24 0 00.55-6.95 4.04 4.04 0 00-2.5-.87h-1.04a6.71 6.71 0 00-3.7-4.43 6.44 6.44 0 00-7.92 2.16 6.73 6.73 0 00.38 8.35"/>
    </symbol>
    <symbol id="star" viewBox="0 0 16 16" fill="none" xmlns="http://www.w3.org/2000/svg">
        <path
                d="M14.189 5.517l-3.967-.576-1.774-3.596a.502.502 0 00-.897 0L5.778 4.941l-3.967.576a.5.5 0 00-.277.853l2.87 2.799-.678 3.951a.5.5 0 00.725.527L8 11.78l3.548 1.866a.5.5 0 00.725-.527l-.678-3.951 2.87-2.799a.498.498 0 00-.277-.853z"
                fill="currentColor"/>
    </symbol>
    <symbol xmlns="http://www.w3.org/2000/svg" fill="none" viewBox="0 0 16 16" id="info">
        <path fill="currentColor"
              d="M8.93 6.59l-2.29.29-.08.38.45.08c.3.07.35.17.29.47l-.74 3.47c-.2.9.1 1.31.8 1.31.55 0 1.18-.25 1.47-.6l.09-.41c-.2.18-.5.25-.69.25-.27 0-.37-.2-.3-.54l1-4.7zM8 5.5a1 1 0 100-2 1 1 0 000 2z"/>
    </symbol>
    <symbol xmlns="http://www.w3.org/2000/svg" fill="currentColor" viewBox="0 0 20 20" id="bell">
        <path fill="currentColor" d="M10 18l2-2H8l2 2zm4-8V8c0-2-1-4-3-4V3l-1-1-1 1v1C7 4 6 6 6 8v2l-2 3v2h12v-2l-2-3z"/>
    </symbol>
    <symbol xmlns="http://www.w3.org/2000/svg" fill="none" viewBox="0 0 20 20" id="eye">
        <path fill="currentColor"
              d="M10 4.4C3.439 4.4 0 9.232 0 10c0 .766 3.439 5.6 10 5.6 6.56 0 10-4.834 10-5.6 0-.768-3.44-5.6-10-5.6zm0 9.907c-2.455 0-4.445-1.928-4.445-4.307 0-2.379 1.99-4.309 4.445-4.309s4.444 1.93 4.444 4.309c0 2.379-1.989 4.307-4.444 4.307zM10 10c-.407-.447.663-2.154 0-2.154-1.228 0-2.223.965-2.223 2.154s.995 2.154 2.223 2.154c1.227 0 2.223-.965 2.223-2.154 0-.547-1.877.379-2.223 0z"/>
    </symbol>
    <symbol id="email" xmlns="http://www.w3.org/2000/svg" fill="none" viewBox="0 0 24 24">
        <path stroke="currentColor" stroke-linecap="round" stroke-linejoin="round" stroke-width="2"
              d="M3 8l7.89 5.26a2 2 0 002.22 0L21 8M5 19h14a2 2 0 002-2V7a2 2 0 00-2-2H5a2 2 0 00-2 2v10a2 2 0 002 2z"/>
    </symbol>
    <symbol fill="none" xmlns="http://www.w3.org/2000/svg" viewBox="0 0 640 512" id="team">
        <path d="M96 224c35.3 0 64-28.7 64-64s-28.7-64-64-64-64 28.7-64 64 28.7 64 64 64zm448 0c35.3 0 64-28.7 64-64s-28.7-64-64-64-64 28.7-64 64 28.7 64 64 64zm32 32h-64c-17.6 0-33.5 7.1-45.1 18.6 40.3 22.1 68.9 62 75.1 109.4h66c17.7 0 32-14.3 32-32v-32c0-35.3-28.7-64-64-64zm-256 0c61.9 0 112-50.1 112-112S381.9 32 320 32 208 82.1 208 144s50.1 112 112 112zm76.8 32h-8.3c-20.8 10-43.9 16-68.5 16s-47.6-6-68.5-16h-8.3C179.6 288 128 339.6 128 403.2V432c0 26.5 21.5 48 48 48h288c26.5 0 48-21.5 48-48v-28.8c0-63.6-51.6-115.2-115.2-115.2zm-223.7-13.4C161.5 263.1 145.6 256 128 256H64c-35.3 0-64 28.7-64 64v32c0 17.7 14.3 32 32 32h65.9c6.3-47.4 34.9-87.3 75.2-109.4z" fill="currentColor" />
    </symbol>
    <symbol fill="none" xmlns="http://www.w3.org/2000/svg" viewBox="0 0 50 50" id="action">
        <path d="M25 0C11.191 0 0 11.191 0 25s11.191 25 25 25 25-11.191 25-25S38.809 0 25 0zm14.58 27.08c0 1.152-.928 2.08-2.08 2.08h-25a2.082 2.082 0 01-2.08-2.08v-4.17c0-1.152.928-2.08 2.08-2.08h25c1.152 0 2.08.938 2.08 2.08v4.17z" fill="currentColor" />
    </symbol>
    <symbol fill="none" xmlns="http://www.w3.org/2000/svg" viewBox="0 0 50 51" id="wclose">
    <path d="M22.221 36.156a2.778 2.778 0 105.555 0 2.778 2.778 0 00-5.555 0zm4.167-6.481a.464.464 0 00.462-.463v-15.74a.464.464 0 00-.462-.463H23.61a.464.464 0 00-.463.463v15.74c0 .254.208.463.463.463h2.778zm23.147-10.88h-3.431c-.15 0-.29.07-.377.191l-6.163 8.495-2.887-3.98a.458.458 0 00-.376-.192h-3.432a.465.465 0 00-.376.735l6.32 8.72a.932.932 0 001.504 0L49.91 19.53a.465.465 0 00-.376-.735zM46.99 36.503h-3.715a.946.946 0 00-.787.434 20.375 20.375 0 01-2.882 3.6 20.543 20.543 0 01-14.583 6.03 20.56 20.56 0 01-8.027-1.615 20.598 20.598 0 01-6.556-4.416 20.431 20.431 0 01-4.421-6.55 20.409 20.409 0 01-1.62-8.015 20.4 20.4 0 011.62-8.015 20.432 20.432 0 014.42-6.55 20.544 20.544 0 0114.583-6.03c2.784 0 5.487.544 8.027 1.614a20.596 20.596 0 016.557 4.416c1.1 1.1 2.06 2.303 2.882 3.599a.925.925 0 00.787.434h3.715a.465.465 0 00.417-.671C43.332 6.672 34.993 1.088 25.328.972 11.51.81.028 12.112 0 25.925-.03 39.749 11.185 50.97 25.022 50.97c9.791 0 18.263-5.613 22.378-13.796a.464.464 0 00-.41-.67z" fill="currentColor" />
    </symbol>
    <symbol fill="none" xmlns="http://www.w3.org/2000/svg" viewBox="0 0 52 52" id="apple">
        <path d="M15.286 14.889C4.57 14.889 1 23.222 1 30.167 1 38.5 8.143 51 15.286 51c3.885-.128 5.996-1.389 10.714-1.389 4.686 0 5.357 1.389 10.714 1.389S51 42.667 51 37.111c-.1-.028-8.829-1.12-8.929-8.333-.067-6.028 8.629-8.206 8.929-8.334-3.654-4.144-10.54-5.452-12.5-5.555-5.118-.308-10.107 2.778-12.5 2.778-2.429 0-6.786-2.778-10.714-2.778zM26 6.556c1.894 0 3.711-.586 5.05-1.628C32.39 3.886 33.144 2.473 33.144 1c-1.895 0-3.711.585-5.05 1.627C26.752 3.67 26 5.082 26 6.556z" stroke="currentColor" stroke-width="2" stroke-linecap="round" stroke-linejoin="round" />
    </symbol>
    <symbol fill="none" xmlns="http://www.w3.org/2000/svg" viewBox="0 0 50 50" id="locka">
        <path d="M25 0C11.193 0 0 11.193 0 25s11.193 25 25 25 25-11.193 25-25S38.807 0 25 0zm-.18 11.444c3.376.016 6.462 2.17 7.773 5.173a8.197 8.197 0 01.686 3.287v2.972h4.096v15.68h-24.75v-15.68h3.766c-.034-2.1-.077-4.503.66-6.26 1.431-3.162 4.393-5.188 7.769-5.172zm-.183 4.993c-1.87.04-3.104 1.461-3.284 3.466v2.973h6.964v-3.003c-.086-1.902-1.525-3.384-3.497-3.436a3.726 3.726 0 00-.183 0z" fill="currentColor" />
    </symbol>
    <symbol fill="none" xmlns="http://www.w3.org/2000/svg" viewBox="0 0 50 51" id="spam">
        <path d="M35.352 50.03H14.65L.001 35.38V14.678L14.649.03h20.703l14.649 14.648v20.703L35.353 50.03zM28.127 7.842a1.5 1.5 0 00-.464-1.098 1.501 1.501 0 00-1.098-.464H23.44c-.424 0-.79.154-1.1.464a1.504 1.504 0 00-.463 1.098v21.875c0 .424.155.79.464 1.099a1.5 1.5 0 001.099.464h3.125c.423 0 .789-.155 1.098-.464a1.5 1.5 0 00.464-1.099V7.842zm0 31.25a1.5 1.5 0 00-.464-1.098 1.501 1.501 0 00-1.098-.464H23.44c-.424 0-.79.154-1.1.464a1.504 1.504 0 00-.463 1.098v3.125c0 .424.155.79.464 1.099a1.5 1.5 0 001.099.464h3.125c.423 0 .789-.155 1.098-.464a1.5 1.5 0 00.464-1.099v-3.125z" fill="currentColor" />
    </symbol>
    <symbol fill="none" xmlns="http://www.w3.org/2000/svg" viewBox="0 0 42 42" id="public">
        <path d="M21 .167C9.5.167.167 9.5.167 21 .167 32.5 9.5 41.833 21 41.833c11.5 0 20.833-9.333 20.833-20.833C41.833 9.5 32.5.167 21 .167zM18.917 37.52C10.687 36.5 4.333 29.5 4.333 21c0-1.292.167-2.52.438-3.73l9.98 9.98v2.083a4.179 4.179 0 004.166 4.167v4.02zm14.375-5.292c-.542-1.687-2.084-2.896-3.959-2.896H27.25v-6.25A2.09 2.09 0 0025.167 21h-12.5v-4.167h4.166a2.09 2.09 0 002.084-2.083v-4.167h4.166a4.179 4.179 0 004.167-4.166v-.855C33.354 8.042 37.667 14.021 37.667 21c0 4.333-1.667 8.27-4.375 11.23z" fill="currentColor"/>
    </symbol>
    <symbol fill="none" xmlns="http://www.w3.org/2000/svg" viewBox="0 0 50 50" id="dashboard">
        <path d="M48.036 17.1c-1.255-3.327-3.075-6.35-5.357-8.9-2.278-2.557-4.977-4.594-7.947-6A22.543 22.543 0 0025 0a22.55 22.55 0 00-9.732 2.2c-2.97 1.406-5.67 3.443-7.947 6-2.282 2.55-4.102 5.573-5.357 8.9C.658 20.556 0 24.219 0 28c0 8.294 3.253 16.106 8.923 21.444l.095.087c.324.3.73.469 1.15.469h29.67c.419 0 .826-.169 1.15-.469l.095-.087C46.747 44.106 50 36.294 50 28c0-3.781-.664-7.444-1.964-10.9zm-24.71-9.6c0-.275.2-.5.446-.5h2.456c.245 0 .446.225.446.5v5c0 .275-.2.5-.446.5h-2.456c-.245 0-.446-.225-.446-.5v-5zm-11.83 21.875c0 .275-.201.5-.447.5H6.585c-.246 0-.447-.225-.447-.5v-2.75c0-.275.201-.5.447-.5h4.464c.246 0 .447.225.447.5v2.75zm5.06-12.781l-1.735 1.944a.425.425 0 01-.315.145.425.425 0 01-.315-.145L11.032 15a.534.534 0 01-.13-.353c0-.132.047-.26.13-.353l1.736-1.944a.415.415 0 01.63 0l3.159 3.537a.545.545 0 010 .707zm16.245 5.225L28.086 27.1c.279 1.169.011 2.462-.81 3.381-.29.326-.634.584-1.013.76a2.822 2.822 0 01-2.392 0 3.126 3.126 0 01-1.014-.76 3.552 3.552 0 01-.678-1.135 3.864 3.864 0 01-.238-1.34c0-.46.08-.915.238-1.34.157-.424.388-.81.678-1.135a3.06 3.06 0 011.4-.907 2.796 2.796 0 011.62.001l4.715-5.281a.415.415 0 01.63 0l1.58 1.768a.545.545 0 010 .707zm2.4-3.275L33.465 16.6a.534.534 0 01-.13-.353c0-.132.047-.26.13-.353l3.159-3.538a.415.415 0 01.63 0L38.99 14.3a.546.546 0 010 .706l-3.159 3.538a.425.425 0 01-.315.145.425.425 0 01-.315-.145zm8.437 10.831c0 .275-.2.5-.446.5h-4.464c-.246 0-.447-.225-.447-.5v-2.75c0-.275.201-.5.447-.5h4.464c.245 0 .446.225.446.5v2.75z" fill="currentColor"/>
    </symbol>
    <symbol fill="none" xmlns="http://www.w3.org/2000/svg" viewBox="0 0 50 46" id="brand">
        <path d="M26.766 5.321h15.422a7.69 7.69 0 015.152 1.995 8.106 8.106 0 012.594 4.993l.05.521.016.527v24.107c0 2.04-.754 4.004-2.11 5.494a7.726 7.726 0 01-5.19 2.526l-.513.016H7.813a7.696 7.696 0 01-5.341-2.17 8.131 8.131 0 01-2.456-5.339L0 37.464v-22.5h15.844l.481-.025a4.62 4.62 0 002.572-1.135l.347-.34 7.522-8.143zM16.146.5a4.58 4.58 0 012.392.675l.421.29 4.12 3.178-6.1 6.606-.188.176a1.54 1.54 0 01-.691.302l-.253.023H0V8.536c0-2.04.754-4.004 2.11-5.494A7.726 7.726 0 017.3.516L7.813.5h8.334z" fill="currentColor"/>
    </symbol>
    <symbol id="arrow-down" xmlns="http://www.w3.org/2000/svg" fill="none" viewBox="0 0 20 20">
        <path fill="currentColor" d="M5 6l5 5 5-5 2 1-7 7-7-7 2-1z"/>
    </symbol>
    <symbol fill="none" xmlns="http://www.w3.org/2000/svg" viewBox="0 0 22 22" id="add">
        <path fill-rule="evenodd" clip-rule="evenodd" d="M11 0C4.925 0 0 4.925 0 11s4.925 11 11 11 11-4.925 11-11S17.075 0 11 0zm1 15a1 1 0 01-2 0v-3H7a1 1 0 010-2h3V7a1 1 0 012 0v3h3a1 1 0 010 2h-3v3z" fill="currentColor" />
    </symbol>
</svg>